<svg xmlns="http://www.w3.org/2000/svg" viewBox="0 0 284.5 142"><defs><style>.cls-1{fill:#fff;}</style></defs><title>logo</title><g id="Layer_12" data-name="Layer 12"><path class="cls-1" d="M70.28,28.75,90.62,56v.17l.09.09v.17l-.09.09v.09l-3,4.24a.46.46,0,0,1-.52.35H44.83a.46.46,0,0,1-.52-.52V5.29h.09V5L47.51.62,47.6.53h.09a.08.08,0,0,1,.09-.09H90.36l.09.09h.09V.62l.09.09V.79a.26.26,0,0,1,.09.17v.09l-.09.09v.17L87.5,5.64Zm-24.41-24H86.81l2.34-3.29H48.2ZM69.58,29.71,67.07,33l20,26.84,2.42-3.46Z"/><path class="cls-1" d="M122.39.44a.46.46,0,0,1,.52.52V56.63a.08.08,0,0,0-.09.09l-3,4.33h-.09a.25.25,0,0,1-.09.17h-.09l-.17.09H99.8c-.35,0-.52-.2-.52-.61V5.29a.08.08,0,0,0,.09-.09V5L102.48.7V.62h.09l.09-.09h.09l.09-.09h19.56Zm-2.6,58.61,2-2.86V1.48H103.16l-2.33,3.29h18.45c.34,0,.52.2.52.61Z"/><path class="cls-1" d="M178.23,28.15a16.79,16.79,0,0,1,4.41,8.53,16.51,16.51,0,0,1-1,9.57l-.09.09a.35.35,0,0,1-.09.26c0,.12,0,.17-.09.17v.09a31.21,31.21,0,0,1-5.8,8.66l-.26.26a15,15,0,0,1-7.05,4.72,28.53,28.53,0,0,1-7.49,1c-.52,0-1.05,0-1.6,0s-1.08,0-1.6,0-1.05,0-1.6,0-1.11,0-1.69,0H132.17a.5.5,0,0,1-.35-.09.08.08,0,0,1-.09-.09l-.09-.09v-.17l-.09-.09h.09v-.26h.09l3-4.42,17.14-22.94H151a4.48,4.48,0,0,0-.87.09q-2.08,0-4.07,0a17.51,17.51,0,0,1-3.9-.52,13.62,13.62,0,0,1-3.77-1.6,12.78,12.78,0,0,1-3.51-3.29,13.64,13.64,0,0,1-3-7.06,14,14,0,0,1,1.17-7.57l.09-.09.26-.52a22,22,0,0,1,2.29-4,29.32,29.32,0,0,1,3.07-3.59,14.4,14.4,0,0,1,3.38-2.73,12.61,12.61,0,0,1,3.42-1.3A17.52,17.52,0,0,1,149.4.53h27a.08.08,0,0,0,.09.09h.09V.7h.09V.79l.09.09v.35l-.09.09V1.4l-3,4.33L160.83,22.78h.61q2.25,0,4.42.09a24.05,24.05,0,0,1,4.29.56A16.63,16.63,0,0,1,174.29,25,15,15,0,0,1,178.23,28.15ZM153.9,1.66h-4a21.1,21.1,0,0,0-3.64.3,11.5,11.5,0,0,0-3.38,1.17,13,13,0,0,0-3.29,2.6,5.78,5.78,0,0,0-.74.69c-.2.23-.39.46-.56.69a9.91,9.91,0,0,1,3-1.47A18.78,18.78,0,0,1,144.38,5a28.63,28.63,0,0,1,3.16-.17h25.41l2.25-3.29H157.1q-.87,0-1.6,0C155,1.64,154.48,1.66,153.9,1.66Zm22.94,32.9a16.74,16.74,0,0,1,2.81,7,17.14,17.14,0,0,1-.48,7.36,10.72,10.72,0,0,0,.74-1.39q.3-.69.65-1.38a15.4,15.4,0,0,0,1-9.09,16.23,16.23,0,0,0-4.15-8.22,15.88,15.88,0,0,0-3.68-2.94,14,14,0,0,0-3.85-1.47,24,24,0,0,0-4.11-.52q-2.12-.08-4.37-.09H160l-2.42,3.29h.43q2.68,0,5.24.09a20.06,20.06,0,0,1,4.93.78,14.87,14.87,0,0,1,4.5,2.21A17.84,17.84,0,0,1,176.84,34.55Z"/><path class="cls-1" d="M236.66,28.15a16.79,16.79,0,0,1,4.42,8.53,16.51,16.51,0,0,1-1,9.57l-.09.09a.35.35,0,0,1-.09.26c0,.12,0,.17-.09.17v.09a31.21,31.21,0,0,1-5.8,8.66l-.26.26a15,15,0,0,1-7.06,4.72,28.53,28.53,0,0,1-7.49,1q-.78,0-1.6,0t-1.6,0c-.52,0-1.05,0-1.6,0s-1.11,0-1.69,0H190.6a.5.5,0,0,1-.35-.09.08.08,0,0,1-.09-.09l-.09-.09v-.17l-.09-.09h.09v-.26h.09l3-4.42,17.14-22.94h-.87a4.47,4.47,0,0,0-.87.09q-2.08,0-4.07,0a17.51,17.51,0,0,1-3.9-.52,13.62,13.62,0,0,1-3.77-1.6,12.78,12.78,0,0,1-3.51-3.29,13.64,13.64,0,0,1-3-7.06,14,14,0,0,1,1.17-7.57l.09-.09.26-.52a22,22,0,0,1,2.29-4,29.4,29.4,0,0,1,3.07-3.59,14.4,14.4,0,0,1,3.38-2.73,12.61,12.61,0,0,1,3.42-1.3,17.52,17.52,0,0,1,3.77-.39h27a.08.08,0,0,0,.09.09H235V.7h.09V.79l.09.09v.35l-.09.09V1.4l-3,4.33L219.26,22.78h.61q2.25,0,4.42.09a24,24,0,0,1,4.29.56A16.62,16.62,0,0,1,232.72,25,15,15,0,0,1,236.66,28.15ZM212.33,1.66h-4a21.09,21.09,0,0,0-3.64.3,11.5,11.5,0,0,0-3.38,1.17A13,13,0,0,0,198,5.73a5.78,5.78,0,0,0-.74.69c-.2.23-.39.46-.56.69a9.91,9.91,0,0,1,3-1.47A18.78,18.78,0,0,1,202.81,5,28.61,28.61,0,0,1,206,4.86h25.41l2.25-3.29H215.54q-.87,0-1.6,0C213.44,1.64,212.91,1.66,212.33,1.66Zm22.94,32.9a16.76,16.76,0,0,1,2.81,7,17.17,17.17,0,0,1-.48,7.36,10.85,10.85,0,0,0,.74-1.39q.3-.69.65-1.38a15.4,15.4,0,0,0,1-9.09,16.23,16.23,0,0,0-4.16-8.22,15.85,15.85,0,0,0-3.68-2.94,14,14,0,0,0-3.85-1.47,24,24,0,0,0-4.11-.52q-2.12-.08-4.37-.09h-1.39l-2.42,3.29h.43q2.68,0,5.24.09a20.06,20.06,0,0,1,4.93.78,14.89,14.89,0,0,1,4.5,2.21A17.84,17.84,0,0,1,235.27,34.55Z"/><path class="cls-1" d="M47.12,90.32a22.52,22.52,0,0,1,2.34,8.18,21.32,21.32,0,0,1-.65,7.14,24,24,0,0,1-2.55,6,38.47,38.47,0,0,1-3.46,4.89.08.08,0,0,1-.09.09,1.35,1.35,0,0,0-.26.35,1.35,1.35,0,0,1-.26.35Q37.08,123,26.78,124v12.64l-.09.09-3.12,4.42-.09.09a.08.08,0,0,0-.09.09H3.23a.46.46,0,0,1-.52-.52V85.38H2.8v-.26h.09l3-4.33v-.09A.08.08,0,0,0,6,80.62h.09l.09-.09H31.36a2.65,2.65,0,0,0,.65.09,2.75,2.75,0,0,1,.65.09,22.11,22.11,0,0,1,2.51.52,18.74,18.74,0,0,1,4.76,1.9A17.17,17.17,0,0,1,47.12,90.32ZM31.28,81.66a1.51,1.51,0,0,0-.61-.09H6.61L4.27,84.86H27a.36.36,0,0,1,.26.09q1,.09,2,.13A7.6,7.6,0,0,1,31,85.3a15.33,15.33,0,0,1,4,1.3,17.58,17.58,0,0,1,6.58,4.76,17.91,17.91,0,0,1,5,15.15c-.12.64-.23,1.25-.35,1.86s-.23,1.2-.35,1.77a23.13,23.13,0,0,0,2.55-8.7,20.14,20.14,0,0,0-2.29-10.6,15.83,15.83,0,0,0-6.75-6.75,17.69,17.69,0,0,0-4.5-1.9q-.69-.17-1.25-.26l-1.17-.17A5.78,5.78,0,0,0,31.28,81.66Zm-5.54,42.42h-1a7.9,7.9,0,0,0-1.08.09v15l2.08-2.86Z"/><path class="cls-1" d="M96.46,134.29a.08.08,0,0,1-.09.09,24.62,24.62,0,0,1-7.49,5.15A21.64,21.64,0,0,1,80,141.39a22.37,22.37,0,0,1-8.66-1.69,22.74,22.74,0,0,1-12.08-11.56,22,22,0,0,1-2-8.57Q57,113.86,57,108.11t.09-11.47q.08-2.77.13-5.54t0-5.54v-.09a.25.25,0,0,1,.09-.17l3-4.33a.4.4,0,0,1,.43-.26h45.45a.46.46,0,0,1,.52.52v22q-.17,2.6-.09,5.37t0,5.54a35.39,35.39,0,0,1-.69,5.5,17.2,17.2,0,0,1-2,5.24A38.43,38.43,0,0,1,96.46,134.29ZM58.72,85h43.54a.46.46,0,0,1,.52.52v5.58q0,2.81.09,5.58.08,5.71.09,11.43t-.17,11.43a24.19,24.19,0,0,1-2,8.22l1.17-1.69a11.81,11.81,0,0,0,1-1.77,17.21,17.21,0,0,0,1.77-4.16,23.83,23.83,0,0,0,.74-4.54q.17-2.47.17-5.45t.09-7V81.75H61.06Z"/><path class="cls-1" d="M159.14,90.32a22.52,22.52,0,0,1,2.34,8.18,21.29,21.29,0,0,1-.65,7.14,23.92,23.92,0,0,1-2.55,6,38.47,38.47,0,0,1-3.46,4.89.08.08,0,0,1-.09.09,1.33,1.33,0,0,0-.26.35,1.36,1.36,0,0,1-.26.35Q149.09,123,138.79,124v12.64l-.09.09-3.12,4.42-.09.09a.08.08,0,0,0-.09.09H115.25a.46.46,0,0,1-.52-.52V85.38h.09v-.26h.09l3-4.33v-.09a.08.08,0,0,0,.09-.09h.09l.09-.09h25.19a2.66,2.66,0,0,0,.65.09,2.74,2.74,0,0,1,.65.09,22.13,22.13,0,0,1,2.51.52,18.72,18.72,0,0,1,4.76,1.9A17.18,17.18,0,0,1,159.14,90.32Zm-15.84-8.66a1.51,1.51,0,0,0-.61-.09H118.62l-2.34,3.29h22.77a.36.36,0,0,1,.26.09q1,.09,2,.13a7.61,7.61,0,0,1,1.69.22,15.32,15.32,0,0,1,4,1.3,17.58,17.58,0,0,1,6.58,4.76,17.92,17.92,0,0,1,5,15.15c-.12.64-.23,1.25-.35,1.86s-.23,1.2-.35,1.77a23.15,23.15,0,0,0,2.55-8.7,20.14,20.14,0,0,0-2.29-10.6,15.84,15.84,0,0,0-6.75-6.75,17.69,17.69,0,0,0-4.5-1.9q-.69-.17-1.26-.26l-1.17-.17A5.78,5.78,0,0,0,143.29,81.66Zm-5.54,42.42h-1a7.89,7.89,0,0,0-1.08.09v15l2.08-2.86Z"/><path class="cls-1" d="M213.24,90.32a22.52,22.52,0,0,1,2.34,8.18,21.29,21.29,0,0,1-.65,7.14,24,24,0,0,1-2.55,6,38.57,38.57,0,0,1-3.46,4.89.08.08,0,0,1-.09.09,1.33,1.33,0,0,0-.26.35,1.33,1.33,0,0,1-.26.35Q203.2,123,192.9,124v12.64l-.09.09-3.12,4.42-.09.09a.08.08,0,0,0-.09.09H169.35a.46.46,0,0,1-.52-.52V85.38h.09v-.26H169l3-4.33v-.09a.08.08,0,0,0,.09-.09h.09l.09-.09h25.19a2.65,2.65,0,0,0,.65.09,2.74,2.74,0,0,1,.65.09,22.08,22.08,0,0,1,2.51.52,18.74,18.74,0,0,1,4.76,1.9A17.18,17.18,0,0,1,213.24,90.32ZM197.4,81.66a1.51,1.51,0,0,0-.61-.09H172.73l-2.34,3.29h22.77a.36.36,0,0,1,.26.09q1,.09,2,.13a7.6,7.6,0,0,1,1.69.22,15.33,15.33,0,0,1,4,1.3,17.59,17.59,0,0,1,6.58,4.76,17.91,17.91,0,0,1,5,15.15c-.12.64-.23,1.25-.35,1.86s-.23,1.2-.35,1.77a23.15,23.15,0,0,0,2.55-8.7,20.14,20.14,0,0,0-2.29-10.6,15.84,15.84,0,0,0-6.75-6.75,17.72,17.72,0,0,0-4.5-1.9q-.69-.17-1.25-.26l-1.17-.17A5.78,5.78,0,0,0,197.4,81.66Zm-5.54,42.42h-1a7.89,7.89,0,0,0-1.08.09v15l2.08-2.86Z"/><path class="cls-1" d="M282.75,80.88a.82.82,0,0,1,0,.52l-32,56.1-.17.17-6.93,3.72H222.76v-.09l-.09-.09-.09-.09V141l-.09-.09a.08.08,0,0,1,.09-.09v-.17L240,111.18,222.5,85.82v-.17h-.09v-.26h.09v-.17l3.12-4.33a.4.4,0,0,1,.43-.26h56.27A.51.51,0,0,1,282.75,80.88Zm-1.38.78H226.31L224,85h51.68a.73.73,0,0,1,.43.61.59.59,0,0,1-.17.43l-10.73,18.27-20.6,35.41,5.28-2.86Z"/></g></svg>